<svg id="Capa_1" enable-background="new 0 0 510 510" height="512" viewBox="0 0 510 510" width="512" xmlns="http://www.w3.org/2000/svg" xmlns:xlink="http://www.w3.org/1999/xlink"><linearGradient id="lg1"><stop offset="0" stop-color="#fe646f"/><stop offset="1" stop-color="#fb2b3a"/></linearGradient><linearGradient id="SVGID_1_" gradientUnits="userSpaceOnUse" x1="68.426" x2="387.077" xlink:href="#lg1" y1="124.426" y2="443.077"/><linearGradient id="lg2"><stop offset="0" stop-color="#f82814" stop-opacity="0"/><stop offset="1" stop-color="#c0272d"/></linearGradient><linearGradient id="SVGID_2_" gradientUnits="userSpaceOnUse" x1="427.054" x2="316.355" xlink:href="#lg2" y1="324.946" y2="214.248"/><linearGradient id="SVGID_3_" gradientUnits="userSpaceOnUse" x1="227" x2="227" xlink:href="#lg2" y1="367" y2="488.149"/><linearGradient id="lg3"><stop offset="0" stop-color="#edf5ff"/><stop offset="1" stop-color="#c7e9ff"/></linearGradient><linearGradient id="SVGID_4_" gradientUnits="userSpaceOnUse" x1="104.724" x2="350.435" xlink:href="#lg3" y1="160.724" y2="406.435"/><linearGradient id="lg4"><stop offset="0" stop-color="#7bacdf" stop-opacity="0"/><stop offset="1" stop-color="#7bacdf"/></linearGradient><linearGradient id="SVGID_5_" gradientUnits="userSpaceOnUse" x1="432.683" x2="307.682" xlink:href="#lg4" y1="367.317" y2="242.316"/><linearGradient id="SVGID_6_" gradientUnits="userSpaceOnUse" x1="227" x2="227" xlink:href="#lg4" y1="354" y2="464.164"/><linearGradient id="SVGID_7_" gradientUnits="userSpaceOnUse" x1="139.756" x2="315.071" xlink:href="#lg1" y1="195.756" y2="371.071"/><linearGradient id="SVGID_8_" gradientUnits="userSpaceOnUse" x1="372.203" x2="282.558" xlink:href="#lg2" y1="342.297" y2="252.653"/><linearGradient id="SVGID_9_" gradientUnits="userSpaceOnUse" x1="177.975" x2="276.49" xlink:href="#lg3" y1="233.975" y2="332.49"/><linearGradient id="SVGID_10_" gradientUnits="userSpaceOnUse" x1="335.859" x2="249.882" xlink:href="#lg4" y1="344.641" y2="258.663"/><linearGradient id="SVGID_11_" gradientUnits="userSpaceOnUse" x1="204.507" x2="249.706" xlink:href="#lg1" y1="260.507" y2="305.706"/><linearGradient id="SVGID_12_" gradientUnits="userSpaceOnUse" x1="302.681" x2="234.174" xlink:href="#lg2" y1="338.319" y2="269.811"/><linearGradient id="SVGID_13_" gradientTransform="matrix(.707 .707 -.707 .707 315.537 -521.273)" gradientUnits="userSpaceOnUse" x1="498.602" x2="513.602" y1="567.714" y2="567.714"><stop offset="0" stop-color="#537983"/><stop offset="1" stop-color="#3e5959"/></linearGradient><linearGradient id="lg5"><stop offset="0" stop-color="#62dbfb"/><stop offset="1" stop-color="#08a9f1"/></linearGradient><linearGradient id="SVGID_14_" gradientTransform="matrix(.707 .707 -.707 .707 315.537 -521.273)" gradientUnits="userSpaceOnUse" x1="473.597" x2="546.912" xlink:href="#lg5" y1="271.9" y2="345.215"/><linearGradient id="SVGID_15_" gradientTransform="matrix(.707 .707 -.707 .707 315.537 -521.273)" gradientUnits="userSpaceOnUse" x1="540.852" x2="501.351" y1="316.354" y2="316.354"><stop offset="0" stop-color="#017bae" stop-opacity="0"/><stop offset=".6303" stop-color="#02678e" stop-opacity=".63"/><stop offset="1" stop-color="#025f80"/></linearGradient><linearGradient id="SVGID_16_" gradientTransform="matrix(.707 .707 -.707 .707 315.537 -521.273)" gradientUnits="userSpaceOnUse" x1="498.602" x2="513.602" xlink:href="#lg5" y1="336.843" y2="336.843"/><linearGradient id="SVGID_17_" gradientTransform="matrix(.707 .707 -.707 .707 315.537 -521.273)" gradientUnits="userSpaceOnUse" x1="485.102" x2="530.279" xlink:href="#lg5" y1="470.893" y2="470.893"/><linearGradient id="lg6"><stop offset="0" stop-color="#ffe177"/><stop offset="1" stop-color="#fe9738"/></linearGradient><linearGradient id="SVGID_18_" gradientTransform="matrix(.707 .707 -.707 .707 315.537 -521.273)" gradientUnits="userSpaceOnUse" x1="493.102" x2="522.619" xlink:href="#lg6" y1="541.323" y2="541.323"/><linearGradient id="lg7"><stop offset="0" stop-color="#f82814" stop-opacity="0"/><stop offset=".2509" stop-color="#f02818" stop-opacity=".251"/><stop offset=".6394" stop-color="#da2721" stop-opacity=".639"/><stop offset="1" stop-color="#c0272d"/></linearGradient><linearGradient id="SVGID_19_" gradientTransform="matrix(.707 .707 -.707 .707 315.537 -521.273)" gradientUnits="userSpaceOnUse" x1="506.102" x2="506.102" xlink:href="#lg7" y1="565.84" y2="541.233"/><linearGradient id="SVGID_20_" gradientTransform="matrix(.707 .707 -.707 .707 315.537 -521.273)" gradientUnits="userSpaceOnUse" x1="506.102" x2="506.102" xlink:href="#lg7" y1="537.693" y2="516.937"/><linearGradient id="SVGID_21_" gradientTransform="matrix(.707 .707 -.707 .707 315.537 -521.273)" gradientUnits="userSpaceOnUse" x1="506.102" x2="506.102" xlink:href="#lg6" y1="510.443" y2="522.817"/><linearGradient id="SVGID_22_" gradientTransform="matrix(.707 .707 -.707 .707 315.537 -521.273)" gradientUnits="userSpaceOnUse" x1="506.102" x2="506.102" xlink:href="#lg6" y1="533.777" y2="546.15"/><g><g><circle cx="227" cy="283" fill="url(#SVGID_1_)" r="227"/><path d="m385.079 445.89c42.501-41.253 68.921-98.982 68.921-162.89 0-62.684-25.408-119.434-66.487-160.513l-162.919 162.919z" fill="url(#SVGID_2_)"/><path d="m5.102 331c22.028 102.313 113 179 221.898 179s199.87-76.687 221.898-179z" fill="url(#SVGID_3_)"/><circle cx="227" cy="283" fill="url(#SVGID_4_)" r="175.039"/><path d="m348.337 409.148c33.1-31.845 53.702-76.589 53.702-126.148 0-48.336-19.592-92.095-51.268-123.771l-126.177 126.177z" fill="url(#SVGID_5_)"/><path d="m58.625 331c20.866 73.334 88.349 127.039 168.375 127.039s147.509-53.705 168.375-127.039z" fill="url(#SVGID_6_)"/><circle cx="227" cy="283" fill="url(#SVGID_7_)" r="124.891"/><path d="m312.87 373.681c24.029-22.762 39.021-54.97 39.021-90.681 0-34.488-13.979-65.71-36.58-88.311l-90.717 90.717z" fill="url(#SVGID_8_)"/><circle cx="227" cy="283" fill="url(#SVGID_9_)" r="70.18"/><path d="m274.16 334.972c14.14-12.839 23.02-31.368 23.02-51.972 0-19.38-7.855-36.924-20.555-49.625l-52.03 52.03z" fill="url(#SVGID_10_)"/><circle cx="227" cy="283" fill="url(#SVGID_11_)" r="32.199"/><path d="m247.232 308.043c7.298-5.903 11.968-14.926 11.968-25.043 0-8.892-3.604-16.941-9.431-22.768l-25.174 25.174z" fill="url(#SVGID_12_)"/></g><path d="m224.594 285.406c-2.929-2.929-2.929-7.678 0-10.607l84.146-84.146c2.929-2.929 7.678-2.929 10.607 0s2.929 7.678 0 10.607l-84.146 84.146c-2.929 2.929-7.678 2.929-10.607 0z" fill="url(#SVGID_13_)"/><g><path d="m510 69.123c0-19.088-15.474-34.562-34.561-34.562 0-19.087-15.474-34.561-34.562-34.561-19.088 0-34.561 15.474-34.561 34.561v33.255c0 9.513 3.779 18.636 10.505 25.362 6.727 6.726 15.85 10.505 25.362 10.505h33.255c19.088.001 34.562-15.472 34.562-34.56z" fill="url(#SVGID_14_)"/><path d="m416.821 93.179c6.726 6.726 15.85 10.505 25.362 10.505h33.255c19.088 0 34.561-15.474 34.561-34.561 0-19.088-15.474-34.561-34.561-34.561z" fill="url(#SVGID_15_)"/><path d="m387.844 122.156c-2.929-2.929-2.929-7.678 0-10.607l84.146-84.146c2.929-2.929 7.678-2.929 10.607 0s2.929 7.678 0 10.607l-84.146 84.146c-2.929 2.929-7.678 2.929-10.607 0z" fill="url(#SVGID_16_)"/><path d="m344.994 221.575c-40.419 40.419-68.525 43.198-84.146 27.577s-12.842-43.726 27.577-84.146 115.972-90.645 131.592-75.024-34.604 91.174-75.023 131.593z" fill="url(#SVGID_17_)"/><path d="m344.994 221.575c-40.418 40.418-68.526 43.197-84.146 27.577s-12.841-43.728 27.577-84.146c1.223-1.223 2.475-2.447 3.741-3.67 7.976 9.108 17.246 19 27.372 29.126s20.018 19.396 29.126 27.372c-1.224 1.266-2.447 2.518-3.67 3.741z" fill="url(#SVGID_18_)"/><path d="m252.541 221.399 36.06 36.06c8.254-1.314 17.706-5.221 28.354-12.304l-52.11-52.11c-7.083 10.648-10.99 20.101-12.304 28.354z" fill="url(#SVGID_19_)"/><path d="m264.845 193.045 52.11 52.11c6.004-3.994 12.396-9.021 19.159-15.136l-56.132-56.132c-6.116 6.762-11.143 13.154-15.137 19.158z" fill="url(#SVGID_20_)"/><path d="m277.602 170.602c-.034.037-.067.074-.101.112-2.529 2.81-2.506 7.067.001 9.897 16.276 18.37 33.516 35.61 51.887 51.887 2.83 2.507 7.087 2.53 9.897.001.037-.033.074-.067.112-.101 3.292-2.967 3.296-8.137-.022-11.075-17.955-15.899-34.799-32.744-50.698-50.698-2.939-3.319-8.108-3.315-11.076-.023z" fill="url(#SVGID_21_)"/><path d="m261.103 187.101c-.034.037-.067.074-.101.112-2.529 2.81-2.506 7.067.001 9.897 16.276 18.37 33.516 35.61 51.887 51.887 2.83 2.507 7.087 2.53 9.897.001.037-.033.074-.067.112-.1 3.292-2.967 3.296-8.137-.022-11.075-17.955-15.899-34.799-32.744-50.698-50.698-2.939-3.319-8.108-3.315-11.076-.024z" fill="url(#SVGID_22_)"/></g></g></svg>