<svg id="color_line" height="512" viewBox="0 0 74 74" width="512" xmlns="http://www.w3.org/2000/svg" data-name="color line"><path d="m28.934 27.307h14.647v13.933h-14.647z" fill="#eeefee"/><path d="m46.05 24.742a2.56 2.56 0 0 1 -2.468 2.565h-14.648a2.562 2.562 0 0 1 -1.724-4.376 2.54 2.54 0 0 1 1.811-.744h14.479a2.553 2.553 0 0 1 2.55 2.555z" fill="#9297ab"/><path d="m28.935 27.807a3.061 3.061 0 0 1 -2.078-5.229 3.036 3.036 0 0 1 2.164-.891h14.479a3.061 3.061 0 0 1 2.165 5.219 3.092 3.092 0 0 1 -2.062.9zm.086-5.12a2.048 2.048 0 0 0 -1.457.6 2.061 2.061 0 0 0 1.387 3.522h14.631a2.061 2.061 0 0 0 -.087-4.12z" fill="#323c6b"/><path d="m43.584 41.235h-14.653l-14.864 24.749a2.819 2.819 0 0 0 2.489 4.142h39.4a2.819 2.819 0 0 0 2.489-4.142z" fill="#eeefee"/><path d="m40.52 27.305h3.06v13.93h-3.06z" fill="#e1e6e9"/><path d="m55.96 70.125h-3.06a2.822 2.822 0 0 0 2.49-4.14l-14.87-24.75h3.06l14.87 24.75a2.815 2.815 0 0 1 -2.49 4.14z" fill="#e1e6e9"/><path d="m52.9 67.125h-33.29a1.545 1.545 0 0 1 -1.325-2.341l5.015-8.349c1.78.9 3.88 1.6 5.81 1.01 1.64-.52 2.81-1.85 4.19-2.83 3.8-2.71 9.12-2.58 13.78-1.59.03.01.07.01.1.02l7.046 11.74a1.545 1.545 0 0 1 -1.326 2.34z" fill="#fe7058"/><path d="m52.9 67.125h-33.29a1.535 1.535 0 0 1 -1.32-2.33h30.49a1.543 1.543 0 0 0 1.32-2.34l-5.95-9.91c.99.11 1.97.28 2.93.48.03.01.07.01.1.02l7.05 11.74a1.55 1.55 0 0 1 -1.33 2.34z" fill="#ea6453"/><path d="m32.365 14.035s3.961-6.9-3.015-8.764c-4.811-1.284-5.511-3.146-5.511-3.146s-3.357 13.285 8.526 11.91" fill="#6fc666"/><path d="m30.721 14.635a7.4 7.4 0 0 1 -5.864-2.293c-3.157-3.605-1.572-10.066-1.503-10.342a.5.5 0 0 1 .456-.376.483.483 0 0 1 .5.323c0 .006.758 1.66 5.173 2.839a5.686 5.686 0 0 1 4.117 3.146c1.182 2.84-.72 6.21-.8 6.352a.5.5 0 0 1 -.376.248 14.794 14.794 0 0 1 -1.703.103zm-6.599-11.335c-.3 1.913-.618 5.979 1.488 8.382 1.349 1.538 3.512 2.17 6.437 1.882.372-.746 1.469-3.242.629-5.253a4.753 4.753 0 0 0 -3.454-2.559 11.648 11.648 0 0 1 -5.1-2.452z" fill="#323c6b"/><path d="m36.119 20.965a.5.5 0 0 1 -.5-.482c-.188-5.406-3.2-5.933-3.326-5.953a.52.52 0 0 1 -.21-.082c-2.292-1.565-4.547-4.275-5.132-6.17a.5.5 0 1 1 .955-.295c.512 1.657 2.589 4.141 4.656 5.581.7.154 3.857 1.167 4.057 6.884a.5.5 0 0 1 -.482.517z" fill="#323c6b"/><path d="m44.492 12.579s5.969-6.7 10.447.1c3.087 4.687 5.328 4.773 5.328 4.773s-13.011 8.324-15.775-4.874" fill="#6fc666"/><g fill="#323c6b"><path d="m52.174 20.546a8.136 8.136 0 0 1 -3.17-.6c-2.531-1.063-4.214-3.508-5-7.266a.5.5 0 0 1 .116-.436c.122-.136 3.057-3.336 6.455-3.1 1.837.134 3.446 1.23 4.782 3.259 2.857 4.337 4.919 4.546 4.939 4.548a.505.505 0 0 1 .45.377.5.5 0 0 1 -.21.543c-.212.139-4.236 2.675-8.362 2.675zm-7.137-7.814c.735 3.271 2.2 5.388 4.354 6.293 3.412 1.433 7.758-.459 9.652-1.454-1.027-.519-2.628-1.74-4.523-4.616-1.155-1.755-2.508-2.7-4.02-2.811-2.5-.186-4.827 1.947-5.463 2.588z"/><path d="m36.119 22.688a.5.5 0 0 1 -.5-.5l.038-7.121a5.229 5.229 0 0 1 2.8-4.462 4.868 4.868 0 0 1 4.962.188 4.625 4.625 0 0 1 1.459 1.45c2.287 1.71 5.718 3.079 7.68 3.012a.492.492 0 0 1 .511.489.5.5 0 0 1 -.489.511c-2.21.027-5.908-1.391-8.388-3.277a.5.5 0 0 1 -.146-.177 3.507 3.507 0 0 0 -1.168-1.167 3.883 3.883 0 0 0 -3.955-.144 4.228 4.228 0 0 0 -2.266 3.61l-.038 1.334v5.758a.5.5 0 0 1 -.5.496z"/><path d="m25.935 39.125a.5.5 0 0 1 -.5-.5v-6.5a.5.5 0 0 1 1 0v6.5a.5.5 0 0 1 -.5.5z"/><path d="m59.559 72.375a.5.5 0 0 1 -.311-.892 5.3 5.3 0 0 0 1.5-6.475.5.5 0 1 1 .9-.434 6.295 6.295 0 0 1 -1.776 7.692.5.5 0 0 1 -.313.109z"/><path d="m25.46 41.688a.5.5 0 0 1 -.429-.757l.225-.375a.5.5 0 1 1 .857.514l-.225.375a.5.5 0 0 1 -.428.243z"/><path d="m60.031 63.292a.5.5 0 0 1 -.429-.242l-.3-.5a.5.5 0 0 1 .857-.516l.3.5a.5.5 0 0 1 -.429.758z"/><path d="m43.582 41.74h-14.647a.5.5 0 0 1 -.5-.5v-13.933a.5.5 0 0 1 .5-.5h14.647a.5.5 0 0 1 .5.5v13.933a.5.5 0 0 1 -.5.5zm-14.147-1h13.647v-12.933h-13.647z"/><path d="m55.959 70.625h-39.4a3.319 3.319 0 0 1 -2.931-4.877l14.872-24.771a.5.5 0 0 1 .429-.243h14.655a.5.5 0 0 1 .429.243l14.864 24.749a3.319 3.319 0 0 1 -2.918 4.9zm-26.745-28.891-14.714 24.507a2.32 2.32 0 0 0 2.061 3.385h39.4a2.319 2.319 0 0 0 2.048-3.408l-14.709-24.484z"/><path d="m52.9 67.625h-33.29a2.045 2.045 0 0 1 -1.753-3.1l5.014-8.349a.5.5 0 0 1 .654-.189c2.191 1.107 3.971 1.425 5.438.979a8.7 8.7 0 0 0 2.8-1.779c.409-.338.819-.675 1.249-.98 4.181-2.982 10.016-2.555 14.173-1.671a1.025 1.025 0 0 1 .161.037.5.5 0 0 1 .264.215l7.046 11.74a2.045 2.045 0 0 1 -1.754 3.1zm-29.408-10.539-4.777 7.956a1.045 1.045 0 0 0 .9 1.583h33.285a1.045 1.045 0 0 0 .9-1.583l-6.938-11.554c-3.908-.82-9.408-1.222-13.272 1.535-.41.292-.8.614-1.191.937a9.571 9.571 0 0 1 -3.137 1.962c-1.636.5-3.524.225-5.77-.836z"/></g><path d="m23.785 64.406a.611.611 0 0 1 .013-1.223l6.433-.025a.611.611 0 1 1 -.013 1.223z" fill="#fff"/><path d="m32.468 64.394a.611.611 0 0 1 .01-1.223h.245a.611.611 0 1 1 -.005 1.223h-.249z" fill="#fff"/></svg>