<svg id="color_line" height="512" viewBox="0 0 74 74" width="512" xmlns="http://www.w3.org/2000/svg" data-name="color line"><path d="m62.989 42.168a26.146 26.146 0 0 1 -3.96 9.556l4.86 6.465-5.7 5.7-6.48-4.86a26.227 26.227 0 0 1 -9.541 3.96l-1.14 8.011h-8.056l-1.14-8.011a26.146 26.146 0 0 1 -9.556-3.96l-6.465 4.86-5.7-5.7 4.86-6.465a26.146 26.146 0 0 1 -3.96-9.556l-8.011-1.14v-8.056l8.011-1.14a26.225 26.225 0 0 1 3.96-9.541l-4.86-6.48 5.7-5.7 6.465 4.86a26.146 26.146 0 0 1 9.556-3.96l1.14-8.011h8.056l1.14 8.011a26.227 26.227 0 0 1 9.541 3.96l6.48-4.86 5.7 5.7-4.86 6.48a26.226 26.226 0 0 1 3.96 9.541l8.011 1.14v8.056z" fill="#eeefee"/><path d="m19.71 57.176a13.791 13.791 0 0 0 2.49 1.824l-6.39 4.89-2.12-2.09z" fill="#e1e6e9"/><path d="m43.36 61.012c-.39.1-.79.19-1.19.27l-1.14 8.01h-3.34l1.1-7.72c1.39-.272 2.98-.4 4.57-.56z" fill="#e1e6e9"/><path d="m50.06 13.96.238.128a20.42 20.42 0 0 0 -12.048-2.788l-1.13-8.3h3.91l1.14 8.01a26.112 26.112 0 0 1 7.89 2.95z" fill="#e1e6e9"/><path d="m62.99 42.17a26.294 26.294 0 0 1 -3.96 9.55l4.86 6.47-5.7 5.7-1.76-1.32 4.09-4.09-4.87-6.46a26.185 26.185 0 0 0 3.97-9.56l8.01-1.14v-8.05l-8.01-1.14a26.12 26.12 0 0 0 -3.97-9.54l4.87-6.49-4.43-4.42 2.1-1.57 5.7 5.7-4.86 6.48a26.349 26.349 0 0 1 3.96 9.54l8.01 1.14v8.06z" fill="#e1e6e9"/><circle cx="37" cy="37" fill="#fff" r="17.125"/><path d="m37 54.625a17.625 17.625 0 1 1 17.625-17.625 17.645 17.645 0 0 1 -17.625 17.625zm0-34.25a16.625 16.625 0 1 0 16.625 16.625 16.644 16.644 0 0 0 -16.625-16.625z" fill="#323c6b"/><path d="m33.626 26.901h6.744v7.067h-6.744z" fill="#eeefee"/><path d="m32.496 26.901h9.004l-.054-2.943h-8.897z" fill="#9297ab"/><path d="m41.5 26.9h-1.52l-.03-1.69h-7.42l.02-1.25h8.9z" fill="#84879c"/><path d="m46.064 48.137h-18.138a1.3 1.3 0 0 1 -1.145-1.9l2.919-5.237a4.472 4.472 0 0 0 3.189.492 9.837 9.837 0 0 0 2.44-1.659c2.14-1.541 5.126-1.519 7.769-.984l4.12 7.384a1.3 1.3 0 0 1 -1.154 1.904z" fill="#fe7058"/><path d="m43.1 38.848c-2.643-.535-5.629-.556-7.769.984a9.837 9.837 0 0 1 -2.44 1.659 4.472 4.472 0 0 1 -3.191-.491l3.927-7.03h6.742z" fill="#eeefee"/><path d="m38.65 26.9h1.72v7.07h-1.72z" fill="#e1e6e9"/><path d="m46.06 48.14h-18.13a1.3 1.3 0 0 1 -1.29-1.47h16.55a1.3 1.3 0 0 0 1.15-1.91l-3.47-6.21a16.6 16.6 0 0 1 2.23.3l4.12 7.38a1.3 1.3 0 0 1 -1.16 1.91z" fill="#ea6453"/><path d="m43.1 38.85a16.6 16.6 0 0 0 -2.23-.3l-.65-1.17-1.9-3.41h2.05z" fill="#e1e6e9"/><g fill="#323c6b"><path d="m41.028 71.5h-8.056a.5.5 0 0 1 -.5-.43l-1.09-7.661a26.536 26.536 0 0 1 -9.082-3.768l-6.189 4.649a.5.5 0 0 1 -.654-.046l-5.7-5.7a.5.5 0 0 1 -.046-.654l4.648-6.19a26.536 26.536 0 0 1 -3.769-9.091l-7.66-1.086a.5.5 0 0 1 -.43-.5v-8.051a.5.5 0 0 1 .43-.5l7.662-1.09a26.612 26.612 0 0 1 3.767-9.077l-4.648-6.2a.5.5 0 0 1 .046-.653l5.7-5.7a.5.5 0 0 1 .654-.046l6.189 4.653a26.536 26.536 0 0 1 9.091-3.769l1.09-7.661a.5.5 0 0 1 .5-.43h8.056a.5.5 0 0 1 .5.43l1.09 7.662a26.612 26.612 0 0 1 9.077 3.767l6.2-4.648a.5.5 0 0 1 .653.046l5.7 5.7a.5.5 0 0 1 .046.653l-4.648 6.2a26.612 26.612 0 0 1 3.767 9.077l7.662 1.09a.5.5 0 0 1 .43.5v8.056a.5.5 0 0 1 -.43.5l-7.661 1.09a26.536 26.536 0 0 1 -3.782 9.078l4.649 6.184a.5.5 0 0 1 -.046.654l-5.7 5.7a.5.5 0 0 1 -.653.046l-6.2-4.648a26.612 26.612 0 0 1 -9.077 3.767l-1.09 7.662a.5.5 0 0 1 -.496.435zm-7.622-1h7.188l1.079-7.581a.5.5 0 0 1 .4-.42 25.637 25.637 0 0 0 9.359-3.885.5.5 0 0 1 .579.015l6.134 4.6 5.087-5.087-4.6-6.119a.5.5 0 0 1 -.016-.578 25.565 25.565 0 0 0 3.884-9.372.5.5 0 0 1 .42-.4l7.58-1.079v-7.188l-7.581-1.079a.5.5 0 0 1 -.42-.4 25.637 25.637 0 0 0 -3.885-9.359.5.5 0 0 1 .015-.579l4.6-6.134-5.087-5.087-6.134 4.6a.5.5 0 0 1 -.579.015 25.637 25.637 0 0 0 -9.358-3.883.5.5 0 0 1 -.4-.42l-1.077-7.58h-7.188l-1.079 7.581a.5.5 0 0 1 -.4.42 25.565 25.565 0 0 0 -9.373 3.885.5.5 0 0 1 -.578-.016l-6.119-4.6-5.087 5.087 4.6 6.134a.5.5 0 0 1 .015.579 25.637 25.637 0 0 0 -3.885 9.359.5.5 0 0 1 -.42.4l-7.58 1.077v7.188l7.581 1.079a.5.5 0 0 1 .42.4 25.565 25.565 0 0 0 3.885 9.373.5.5 0 0 1 -.016.578l-4.6 6.119 5.086 5.086 6.119-4.6a.5.5 0 0 1 .578-.016 25.565 25.565 0 0 0 9.374 3.887.5.5 0 0 1 .4.42z"/><path d="m46.063 48.637h-18.137a1.8 1.8 0 0 1 -1.587-2.637l2.927-5.242a.5.5 0 0 1 .654-.207 3.92 3.92 0 0 0 2.826.464 5 5 0 0 0 1.541-1c.248-.205.5-.409.755-.592 2.435-1.752 5.78-1.546 8.157-1.066a.5.5 0 0 1 .337.247l4.12 7.383a1.8 1.8 0 0 1 -1.592 2.648zm-16.148-6.993-2.7 4.832a.776.776 0 0 0 .026.774.79.79 0 0 0 .683.387h18.139a.8.8 0 0 0 .694-.39.774.774 0 0 0 .02-.78l-4-7.171c-2.163-.411-5.082-.549-7.153.944-.242.171-.47.36-.7.549a5.823 5.823 0 0 1 -1.878 1.18 4.548 4.548 0 0 1 -3.131-.325z"/><path d="m32 42.119a5.826 5.826 0 0 1 -2.516-.67.5.5 0 0 1 -.219-.694l3.927-7.03a.5.5 0 0 1 .437-.256h6.741a.5.5 0 0 1 .437.256l2.729 4.88a.5.5 0 0 1 -.536.734c-2.182-.442-5.233-.645-7.378.9-.242.171-.47.36-.7.549a5.823 5.823 0 0 1 -1.878 1.18 3.594 3.594 0 0 1 -1.044.151zm-1.595-1.354a3.515 3.515 0 0 0 2.34.249 5 5 0 0 0 1.541-1c.248-.205.5-.409.755-.592 2.095-1.508 4.864-1.567 7.109-1.247l-2.074-3.709h-6.153z"/><path d="m40.37 34.468h-6.745a.5.5 0 0 1 -.5-.5v-7.068a.5.5 0 0 1 .5-.5h6.745a.5.5 0 0 1 .5.5v7.067a.5.5 0 0 1 -.5.501zm-6.244-1h5.744v-6.068h-5.745z"/><path d="m41.5 27.4h-9a.5.5 0 0 1 -.5-.509l.053-2.942a.5.5 0 0 1 .5-.491h8.9a.5.5 0 0 1 .5.491l.047 2.943a.5.5 0 0 1 -.5.509zm-8.494-1h7.984l-.035-1.942h-7.915z"/><path d="m65.03 61.792a.5.5 0 0 1 -.354-.854l2.516-2.516-3.333-4.434a.5.5 0 0 1 .8-.6l3.594 4.781a.5.5 0 0 1 -.046.654l-2.823 2.823a.5.5 0 0 1 -.354.146z"/><path d="m63.325 63.542a.5.5 0 0 1 -.354-.854l.313-.312a.5.5 0 0 1 .707.707l-.312.313a.5.5 0 0 1 -.354.146z"/><path d="m9.6 20.625a.5.5 0 0 1 -.4-.2l-.25-.325a.5.5 0 0 1 .8-.6l.246.328a.5.5 0 0 1 -.4.8z"/><path d="m7.792 18.219a.5.5 0 0 1 -.4-.2l-1.642-2.19a.5.5 0 0 1 .046-.653l4.538-4.538a.5.5 0 0 1 .707.707l-4.231 4.231 1.382 1.843a.5.5 0 0 1 -.4.8z"/></g></svg>