<svg height="512" viewBox="0 0 128 128" width="512" xmlns="http://www.w3.org/2000/svg"><g><path d="m113.8 35.25-14.84 8.57-3.5 2.02-13.12 7.57-3.5 2.02-14.84 8.57-14.84-8.57-3.5-2.02-13.12-7.57-3.5-2.02-14.84-8.57 14.85-8.57 3.5-2.02 13.1-7.57 3.5-2.02 14.85-8.57 14.85 8.57 3.5 2.02 13.1 7.57 3.5 2.02z" fill="#6aa8fb"/><g fill="#5283c3"><path d="m98.95 26.68-14.84 8.57-3.5 2.02-13.11 7.57-3.5 2.02-14.84 8.57-3.33 1.92a1.755 1.755 0 0 1 -.88.23 1.746 1.746 0 0 1 -.87-3.26l1.58-.91 14.84-8.57 3.5-2.02 13.11-7.57 3.5-2.02 14.84-8.57z"/><path d="m82.35 17.09-14.85 8.57-3.5 2.02-13.11 7.57-3.5 2.02-14.85 8.57-3.62 2.09a1.7 1.7 0 0 1 -.87.24 1.754 1.754 0 0 1 -.88-3.27l1.87-1.08 14.85-8.57 3.5-2.02 13.11-7.57 3.5-2.02 14.85-8.57z"/></g><g fill="#5283c3"><path d="m82.34 53.41-3.5 2.02-14.84-8.57-3.5-2.02-13.11-7.57-3.5-2.02-14.84-8.57 3.5-2.02 14.84 8.57 3.5 2.02 13.11 7.57 3.5 2.02z"/><path d="m98.96 43.82-3.5 2.02-14.85-8.57-3.5-2.02-13.11-7.57-3.5-2.02-14.85-8.57 3.5-2.02 14.85 8.57 3.5 2.02 13.11 7.57 3.5 2.02z"/></g><g><path d="m64 64v57.5l-14.85-8.57-3.5-2.02-13.1-7.57-3.5-2.02-14.85-8.57v-57.5l14.85 8.57 3.5 2.02 13.1 7.57 3.5 2.02z" fill="#f3d232"/><g fill="#bba227"><path d="m32.55 45.84v57.5l-3.5-2.02v-57.5z"/><path d="m49.15 55.43v57.5l-3.5-2.02v-57.5z"/><path d="m64 81.15v4.04l-14.85-8.58-3.5-2.02-13.1-7.56-3.5-2.02-14.85-8.57v-4.04l14.85 8.57 3.5 2.02 13.1 7.56 3.5 2.02z"/><path d="m64 100.31v4.04l-14.85-8.57-3.5-2.02-13.1-7.56-3.5-2.02-14.85-8.58v-4.04l14.85 8.58 3.5 2.02 13.1 7.56 3.5 2.02z"/></g><path d="m64 64v57.5l14.85-8.57 3.5-2.02 13.1-7.57 3.5-2.02 14.85-8.57v-57.5l-14.85 8.57-3.5 2.02-13.1 7.57-3.5 2.02z" fill="#dc4c12"/><g fill="#a4390d"><path d="m95.45 45.84v57.5l3.5-2.02v-57.5z"/><path d="m78.85 55.43v57.5l3.5-2.02v-57.5z"/><path d="m64 81.15v4.04l14.85-8.58 3.5-2.02 13.1-7.56 3.5-2.02 14.85-8.57v-4.04l-14.85 8.57-3.5 2.02-13.1 7.56-3.5 2.02z"/><path d="m64 100.31v4.04l14.85-8.57 3.5-2.02 13.1-7.56 3.5-2.02 14.85-8.58v-4.04l-14.85 8.58-3.5 2.02-13.1 7.56-3.5 2.02z"/></g></g></g></svg>